Coordinates
version=1
nRows=18
nColumns=22
inDegrees=yes

Units are S.I. units (second, meters, Newtons, ...)
If the header above contains a line with 'inDegrees', this indicates whether rotational values are in degrees (yes) or radians (no).

endheader
time	pelvis_tilt	pelvis_list	pelvis_rotation	pelvis_tx	pelvis_ty	pelvis_tz	hip_flexion_r	hip_adduction_r	hip_rotation_r	knee_angle_r	ankle_angle_r	subtalar_angle_r	hip_flexion_l	hip_adduction_l	hip_rotation_l	knee_angle_l	ankle_angle_l	subtalar_angle_l	lumbar_extension	lumbar_bending	lumbar_rotation
      1.64000000	     -4.14463975	      0.54494767	     95.79362621	     -0.48924640	      0.91026447	      0.45775880	     12.15327639	     -0.15345744	     10.51019023	    -69.57818759	    -16.46769300	     -2.88682995	     12.31929659	     -4.34813579	    -12.74810976	    -25.43740077	      7.44090381	      3.59432823	     -6.71008618	     -7.89973206	     -1.91074543
      1.65000000	     -4.19553308	      0.66705311	     95.12917416	     -0.49226374	      0.91146752	      0.45118640	     13.52487555	     -0.03556098	     10.12964110	    -70.83718551	    -15.64357293	     -2.93327200	     11.33309452	     -4.15647815	    -13.46403786	    -24.95759925	      7.74015217	      3.52845418	     -6.93544449	     -7.93623079	     -2.45649245
      1.66000000	     -4.19987974	      0.81391713	     94.51962437	     -0.49515538	      0.91268896	      0.44458740	     14.79725033	      0.14327658	      9.65663383	    -71.80300535	    -14.64564544	     -3.03932017	     10.35209041	     -3.99878049	    -14.11158217	    -24.49907909	      8.00983136	      3.42825822	     -7.17982286	     -7.91863596	     -3.02942886
      1.67000000	     -4.11006846	      0.97093441	     93.97964000	     -0.49794585	      0.91390397	      0.43795459	     15.97594945	      0.42470954	      9.06604333	    -72.46572554	    -13.51103585	     -3.07638328	      9.39134548	     -3.92173841	    -14.63838842	    -24.05383878	      8.30854518	      3.35408021	     -7.42299020	     -7.79419676	     -3.60668234
      1.68000000	     -3.96211172	      1.11000780	     93.49698111	     -0.50065576	      0.91504330	      0.43129639	     17.10424283	      0.75137202	      8.35790526	    -72.85393847	    -12.34905242	     -3.00896169	      8.48151199	     -3.89771153	    -15.11280510	    -23.64314566	      8.61390707	      3.31471286	     -7.63495980	     -7.60576850	     -4.17417158
      1.69000000	     -3.79687655	      1.23950470	     93.03092395	     -0.50323959	      0.91611343	      0.42463287	     18.17568578	      1.09868063	      7.60309825	    -72.98528918	    -11.16001226	     -2.92071765	      7.57828145	     -3.88227507	    -15.56378120	    -23.21102646	      8.89307216	      3.27009380	     -7.83056487	     -7.40321644	     -4.71231951
      1.70000000	     -3.62643961	      1.39849521	     92.57598365	     -0.50572077	      0.91716320	      0.41795377	     19.14173735	      1.44815894	      6.80680934	    -72.85739323	     -9.96195993	     -2.82957912	      6.62345052	     -3.86131819	    -16.00433666	    -22.73280139	      9.15999754	      3.20554675	     -8.05691877	     -7.19486951	     -5.21284296
      1.71000000	     -3.48264552	      1.43961926	     92.13075824	     -0.50813072	      0.91790663	      0.41136118	     20.19496734	      1.75409921	      5.98260295	    -72.52922945	     -8.74633170	     -2.64981595	      5.81299288	     -3.80513569	    -16.45969662	    -22.27498259	      9.42042078	      3.19090608	     -8.15388666	     -7.02530806	     -5.66386868
      1.72000000	     -3.38315273	      1.45494447	     91.67696323	     -0.51047535	      0.91849402	      0.40482114	     21.22228229	      2.00796043	      5.16165870	    -71.98609088	     -7.52839450	     -2.44214303	      5.01469134	     -3.69041866	    -16.93530614	    -21.78157783	      9.66533673	      3.17721686	     -8.22805834	     -6.90580863	     -6.05708262
      1.73000000	     -3.34619453	      1.41808899	     91.20590153	     -0.51276601	      0.91887598	      0.39835690	     22.26077651	      2.19090077	      4.36409464	    -71.24438395	     -6.33145526	     -2.22506893	      4.26446631	     -3.49777770	    -17.44409819	    -21.26455546	      9.88830395	      3.16744835	     -8.25331600	     -6.85416643	     -6.39509440
      1.74000000	     -3.37224787	      1.32784559	     90.72021288	     -0.51500218	      0.91905171	      0.39195282	     23.31359182	      2.29997293	      3.58501904	    -70.31150377	     -5.19304417	     -2.02435919	      3.56789975	     -3.22916178	    -17.98492554	    -20.73079480	     10.08714635	      3.15852778	     -8.22526463	     -6.87259693	     -6.67767471
      1.75000000	     -3.44354161	      1.20042700	     90.22711048	     -0.51717512	      0.91905785	      0.38556091	     24.35929571	      2.34472100	      2.80059053	    -69.18919413	     -4.15342952	     -1.86602946	      2.91218311	     -2.90585418	    -18.54236405	    -20.18943440	     10.26208736	      3.14862678	     -8.15693408	     -6.93751298	     -6.91941548
      1.76000000	     -3.53051321	      1.06799837	     89.74667607	     -0.51925357	      0.91897775	      0.37909879	     25.34604859	      2.34745851	      1.97577739	    -67.86075792	     -3.26408580	     -1.78248339	      2.25934542	     -2.56390795	    -19.10468190	    -19.63770245	     10.41384370	      3.14057093	     -8.07867283	     -7.02045414	     -7.14611475
      1.77000000	     -3.55520351	      0.98765892	     89.31707727	     -0.52119971	      0.91892875	      0.37247545	     26.17980670	      2.37371547	      1.04048538	    -66.29256428	     -2.50038159	     -1.78986788	      1.55466255	     -2.29713276	    -19.63573586	    -19.09768198	     10.58144747	      3.16545335	     -8.05176673	     -7.03590095	     -7.38250969
      1.78000000	     -3.46452424	      0.98887051	     88.95941256	     -0.52297252	      0.91898974	      0.36562597	     26.80422477	      2.47378281	     -0.03653570	    -64.46306156	     -1.90301408	     -1.85031049	      0.75930829	     -2.16658215	    -20.11304346	    -18.56633274	     10.76994611	      3.24709819	     -8.11043786	     -6.92988274	     -7.65000008
      1.79000000	     -3.27065455	      1.06558257	     88.66562258	     -0.52456886	      0.91914136	      0.35851882	     27.22042900	      2.63925959	     -1.23527943	    -62.38410037	     -1.44562212	     -1.91370817	     -0.12229952	     -2.15966087	    -20.54544112	    -18.05193750	     10.97444938	      3.37721438	     -8.24139906	     -6.71512973	     -7.94641752
      1.80000000	     -2.99137565	      1.19940322	     88.43538490	     -0.52600612	      0.91933623	      0.35121514	     27.44847604	      2.86657337	     -2.52249293	    -60.06410699	     -1.10245705	     -1.96160786	     -1.06441397	     -2.25726950	    -20.93538696	    -17.55867169	     11.20155229	      3.53650304	     -8.43549404	     -6.41058240	     -8.27600683
      1.81000000	     -2.67235560	      1.35695467	     88.23406437	     -0.52730583	      0.91949259	      0.34376563	     27.53152740	      3.13170865	     -3.83502563	    -57.51710036	     -0.85353252	     -2.00122000	     -2.03570352	     -2.40117560	    -21.28014304	    -17.07557381	     11.42790956	      3.72389703	     -8.65124572	     -6.06443720	     -8.60494679
